<svg width="156" height="155" fill="none" xmlns="http://www.w3.org/2000/svg"><path opacity=".555" fill-rule="evenodd" clip-rule="evenodd" d="m54.167 113.788-20.324 2.077-3.646-20.555-16.65-11.814L23.65 65.12l-5.187-20.178 19.127-7.598 8.705-19.1 19.2 6.735 18.523-9.086L94.308 33.81l19.674 5.18-3.437 20.716 11.62 17.022-15.554 13.82-1.872 20.9-20.394.459-14.487 14.998-15.691-13.117Z" fill="url(#a)"/><path fill-rule="evenodd" clip-rule="evenodd" d="m92.578 53.66.617.495a14.08 14.08 0 0 1 5.1 8.83 11.311 11.311 0 0 1-2.878 9.419l-.007.007a13.333 13.333 0 0 1-9.186 4.259l-.847.038a25.57 25.57 0 0 1-11.311-2.088l-.093-.04a50.7 50.7 0 0 0-11.03-3.356 25.02 25.02 0 0 1-10.373-4.502l-.756-.56a13.309 13.309 0 0 1-5.23-8.66 11.312 11.312 0 0 1 2.879-9.42l.006-.007a13.333 13.333 0 0 1 9.187-4.26l.64-.028a22.485 22.485 0 0 1 11.506 2.586l3.43 1.813a20.183 20.183 0 0 0 9.433 2.34c3.24 0 6.383 1.105 8.913 3.135Z" fill="url(#b)"/><path fill-rule="evenodd" clip-rule="evenodd" d="M86.852 62.835c-1.388-.789-3.55-.38-6.483 1.227l.246 2.353c1.917-1.018 3.481-1.183 4.693-.495 1.213.688 1.925 2.145 2.138 4.372l1.752-1.214c-.175-3.373-.957-5.454-2.346-6.243ZM63.518 56.159c-1.626-.925-4.159-.44-7.6 1.456l.284 2.766 5.773-1.492 3.62 3.911 2.055-1.43c-1.129-2.55-2.506-4.286-4.132-5.211Z" fill="#000"/><path fill-rule="evenodd" clip-rule="evenodd" d="M111.639 9.477c-.643-2.17-1.928-2.893-3.855-2.17-1.928.723-1.607 3.978.963 9.765 5.783-1.447 8.354-3.255 7.711-5.425-.642-2.17-2.249-2.893-4.819-2.17Z" fill="url(#c)"/><path opacity=".752" fill-rule="evenodd" clip-rule="evenodd" d="M43.857 85.115c-3.492-.757-5.238.537-5.238 3.882s3.893 5.018 11.678 5.018c2.662-7.026 2.591-11.09-.21-12.195-2.802-1.105-4.878-.006-6.23 3.295Z" fill="url(#d)"/><path fill-rule="evenodd" clip-rule="evenodd" d="M47.194 81.77c-3.492-.757-5.239.537-5.239 3.882s3.893 5.018 11.679 5.018c2.661-7.026 2.591-11.091-.21-12.195-2.802-1.105-4.879-.006-6.23 3.295Z" fill="url(#e)"/><path fill-rule="evenodd" clip-rule="evenodd" d="M148.924 51.357c1.246-2.748.584-4.602-1.987-5.565-2.571-.963-5.087 2.594-7.549 10.671 7.081 3.616 11.245 4.05 12.492 1.304 1.246-2.748.261-4.884-2.956-6.41Z" fill="url(#f)"/><path opacity=".179" d="M73.436 154.479c15.81 0 28.628-1.672 28.628-3.734 0-2.062-12.817-3.734-28.628-3.734-15.81 0-28.627 1.672-28.627 3.734 0 2.062 12.817 3.734 28.627 3.734Z" fill="#656565"/><path d="M116.367 73.81c4.77-.473 5.192 4.063 5.271 6.632.079 2.569-1.294 8.383-.995 11.757.298 3.374 1.576 9.224 1.451 11.519h-5.727V73.81Z" fill="url(#g)"/><path d="M121.638 80.442c.369-6.122-3.164-6.664-5.166-6.765-2.002-.101-6.533 1.661-9.162 1.278-2.63-.384-5.359-1.863-8.977-1.863-3.29 0-6.077 2.485-9.973 7.35h33.278Z" fill="url(#h)"/><path d="M121.635 126.942c.369 6.121-3.165 6.663-5.167 6.764-2.002.101-6.533-1.661-9.162-1.277-2.63.383-5.359 1.862-8.977 1.862-3.29 0-6.077-2.485-9.973-7.349h33.279Z" fill="url(#i)"/><path d="M116.367 133.627c4.77.473 5.192-4.063 5.271-6.632.079-2.569-1.294-8.383-.995-11.757.298-3.375 1.576-9.224 1.451-11.52h-5.727v29.909Z" fill="url(#j)"/><path d="M67.97 73.81c-4.77-.473-5.193 4.063-5.272 6.632-.078 2.569 1.295 8.383.996 11.757-.299 3.374-1.576 9.224-1.452 11.519h5.727V73.81Z" fill="url(#k)"/><path d="M62.698 80.442c-.368-6.122 3.165-6.664 5.167-6.765 2.002-.101 6.533 1.661 9.162 1.278 2.63-.384 5.359-1.863 8.976-1.863 3.291 0 6.078 2.485 9.974 7.35H62.698Z" fill="url(#l)"/><path d="M62.702 126.942c-.369 6.121 3.165 6.663 5.167 6.764 2.002.101 6.533-1.661 9.162-1.277 2.63.383 5.359 1.862 8.976 1.862 3.291 0 6.078-2.485 9.974-7.349H62.7Z" fill="url(#m)"/><path d="M67.97 133.627c-4.77.473-5.193-4.063-5.272-6.632-.078-2.569 1.295-8.383.996-11.757-.299-3.375-1.576-9.224-1.452-11.52h5.727v29.909Z" fill="url(#n)"/><path fill="url(#o)" d="M69.867 77.19h49.521v48.246H69.867z"/><path d="m79.347 90.17-.063.315.253.21.315-.042.147-.252-.105-.316-.294-.084-.252.169Z" fill="url(#p)"/><path d="m73.779 84.15-.462-.169-.463.274-.042.504.379.358.504-.084.294-.442-.21-.441ZM107.84 98.3l-.084.273-.168.273.252.168.189.21.273-.189.273-.105-.126-.273-.021-.315-.315.02-.273-.062Zm1.597-7.885-.063-.568-.547.043-.588-.127-.147.568-.273.484.504.315.357.442.442-.379.546-.231-.231-.547Z" fill="#E2FFF0"/><path d="M109.493 109.033c-1.73.706-3.767 1.396-5.569.559-.836-.391-1.198-.819-1.297-1.298-1.226.478-2.453.907-3.834.758-.655-.072-2.156-.723-1.748-1.609.94-2.041 3.102-3.378 4.51-5.117-4.051 1.428-7.825 3.643-12.245 3.825-.646.026-2.174-.801-1.748-1.609 1.164-2.206 3.005-3.838 4.755-5.561-4.156 1.151-8.294 2.221-12.696 1.512-.443-.071-1.983-.933-1.448-1.572 2.685-3.21 6.726-4.39 10.185-6.583.843-.535 3.026 1.044 2.078 1.646-2.754 1.746-5.999 2.823-8.491 4.902 4.498-.096 8.884-1.896 13.224-2.916.613-.145 2.62.756 2.011 1.584-1.694 2.303-4.042 4.043-5.832 6.236 4.022-1.042 7.695-3.404 11.815-4.194.65-.125 2.266.533 2.072 1.39-.539 2.372-2.538 3.791-4.153 5.488.839-.34 1.675-.708 2.546-.895.784-.168 2.363.654 2.012 1.585-.092.276-.21.54-.356.793-.013.03-.024.051-.035.078a13.22 13.22 0 0 0 2.165-.648c.932-.38 3.029 1.258 2.079 1.646Z" fill="url(#q)"/><path d="M119.161 71.389c4.77-.473 5.193 4.062 5.271 6.631.079 2.57-1.294 8.384-.995 11.758.299 3.374 1.576 9.224 1.451 11.519h-5.727V71.389Z" fill="url(#r)"/><path d="M124.432 78.02c.369-6.121-3.164-6.663-5.166-6.764-2.002-.101-6.533 1.661-9.162 1.278-2.629-.384-5.359-1.863-8.976-1.863-3.292 0-6.078 2.485-9.974 7.35h33.278Z" fill="url(#s)"/><path d="M124.429 124.521c.369 6.121-3.165 6.663-5.167 6.764-2.002.101-6.533-1.661-9.162-1.278-2.629.384-5.359 1.863-8.976 1.863-3.292 0-6.078-2.485-9.974-7.349h33.279Z" fill="url(#t)"/><path d="M119.161 131.206c4.77.472 5.193-4.063 5.271-6.632.079-2.569-1.294-8.383-.995-11.758.299-3.374 1.576-9.223 1.451-11.519h-5.727v29.909Z" fill="url(#u)"/><path d="M70.764 71.389c-4.77-.473-5.193 4.062-5.271 6.631-.08 2.57 1.294 8.384.995 11.758-.299 3.374-1.576 9.224-1.451 11.519h5.727V71.389Z" fill="url(#v)"/><path d="M65.493 78.02c-.369-6.121 3.164-6.663 5.166-6.764 2.002-.101 6.533 1.661 9.162 1.278 2.63-.384 5.36-1.863 8.977-1.863 3.29 0 6.077 2.485 9.973 7.35H65.493Z" fill="url(#w)"/><path d="M65.496 124.521c-.369 6.121 3.165 6.663 5.167 6.764 2.002.101 6.533-1.661 9.162-1.278 2.63.384 5.36 1.863 8.977 1.863 3.29 0 6.077-2.485 9.973-7.349h-33.28Z" fill="url(#x)"/><path d="M70.764 131.206c-4.77.472-5.193-4.063-5.271-6.632-.08-2.569 1.294-8.383.995-11.758-.299-3.374-1.576-9.223-1.451-11.519h5.727v29.909Z" fill="url(#y)"/><path d="M56.34 113.201c2.155-7.067 9.616-11.045 16.665-8.884 4.758 1.458 8.112 5.34 9.127 9.883l-12.274 12.704-13.97-11.679c.097-.675.246-1.351.452-2.024Z" fill="#9A9EA1"/><path d="M68.537 129.91c7.05 2.161 14.511-1.817 16.666-8.884 2.156-7.068-1.812-14.548-8.861-16.709-7.05-2.161-14.51 1.817-16.666 8.884-2.155 7.068 1.812 14.548 8.861 16.709Z" fill="url(#z)"/><path fill-rule="evenodd" clip-rule="evenodd" d="M109.756 84.84c1.885-6.184 8.414-9.665 14.582-7.774a11.625 11.625 0 0 1 5.189 3.276l-8.746 16.751 1.292 1.579 4.195.002a11.613 11.613 0 0 1-8.759.786c-6.168-1.89-9.639-8.436-7.753-14.62Z" fill="url(#A)"/><path d="M121.466 99.802c7.049 2.161 14.51-1.817 16.665-8.884 2.156-7.067-1.812-14.548-8.861-16.709-7.049-2.16-14.511 1.817-16.666 8.885-2.155 7.067 1.812 14.548 8.862 16.709Z" fill="url(#B)"/><defs><linearGradient id="a" x1="97.5" y1="35.82" x2="-.692" y2="78.195" gradientUnits="userSpaceOnUse"><stop stop-color="#D6D6D6"/><stop offset=".651" stop-color="#808386"/><stop offset=".891"/></linearGradient><linearGradient id="b" x1="95.789" y1="58.225" x2="86.919" y2="73.153" gradientUnits="userSpaceOnUse"><stop stop-color="#696C6D"/><stop offset="1" stop-color="#989B9D"/></linearGradient><linearGradient id="c" x1="106.544" y1="17.072" x2="111.562" y2="12.067" gradientUnits="userSpaceOnUse"><stop stop-color="#EDF9F3"/><stop offset="1" stop-color="#63D097"/></linearGradient><linearGradient id="d" x1="40.603" y1="95.475" x2="52.263" y2="80.589" gradientUnits="userSpaceOnUse"><stop stop-opacity="0"/><stop offset="1" stop-color="#6E6E6E"/></linearGradient><linearGradient id="e" x1="52.597" y1="90.873" x2="54.385" y2="82.79" gradientUnits="userSpaceOnUse"><stop stop-color="#63D096"/><stop offset="1" stop-color="#E2F7EC"/></linearGradient><linearGradient id="f" x1="139.957" y1="56.959" x2="150.512" y2="44.848" gradientUnits="userSpaceOnUse"><stop stop-color="#D4F2E2"/><stop offset="1" stop-color="#62D096"/></linearGradient><linearGradient id="g" x1="114.734" y1="134.291" x2="74.695" y2="73.896" gradientUnits="userSpaceOnUse"><stop stop-opacity="0"/><stop offset="1" stop-color="#6E6E6E"/></linearGradient><linearGradient id="h" x1="114.734" y1="134.291" x2="74.695" y2="73.896" gradientUnits="userSpaceOnUse"><stop stop-opacity="0"/><stop offset="1" stop-color="#6E6E6E"/></linearGradient><linearGradient id="i" x1="114.734" y1="134.291" x2="74.695" y2="73.896" gradientUnits="userSpaceOnUse"><stop stop-opacity="0"/><stop offset="1" stop-color="#6E6E6E"/></linearGradient><linearGradient id="j" x1="114.734" y1="134.291" x2="74.695" y2="73.896" gradientUnits="userSpaceOnUse"><stop stop-opacity="0"/><stop offset="1" stop-color="#6E6E6E"/></linearGradient><linearGradient id="k" x1="114.734" y1="134.291" x2="74.695" y2="73.896" gradientUnits="userSpaceOnUse"><stop stop-opacity="0"/><stop offset="1" stop-color="#6E6E6E"/></linearGradient><linearGradient id="l" x1="114.734" y1="134.291" x2="74.695" y2="73.896" gradientUnits="userSpaceOnUse"><stop stop-opacity="0"/><stop offset="1" stop-color="#6E6E6E"/></linearGradient><linearGradient id="m" x1="114.734" y1="134.291" x2="74.695" y2="73.896" gradientUnits="userSpaceOnUse"><stop stop-opacity="0"/><stop offset="1" stop-color="#6E6E6E"/></linearGradient><linearGradient id="n" x1="114.734" y1="134.291" x2="74.695" y2="73.896" gradientUnits="userSpaceOnUse"><stop stop-opacity="0"/><stop offset="1" stop-color="#6E6E6E"/></linearGradient><linearGradient id="o" x1="70.22" y1="79.383" x2="144.497" y2="158.132" gradientUnits="userSpaceOnUse"><stop stop-color="#63D097"/><stop offset=".899" stop-color="#D9F3E5"/></linearGradient><linearGradient id="p" x1="78.297" y1="90.066" x2="81.026" y2="89.72" gradientUnits="userSpaceOnUse"><stop offset=".311" stop-color="#E2FFF0"/><stop offset=".556" stop-color="#9AF1D1" stop-opacity=".68"/><stop offset=".988" stop-color="#00D38F" stop-opacity="0"/></linearGradient><linearGradient id="q" x1="84.014" y1="95.6" x2="114.912" y2="153.343" gradientUnits="userSpaceOnUse"><stop offset=".145" stop-color="#E2FFF0"/><stop offset="1" stop-color="#B5F7D2"/></linearGradient><linearGradient id="z" x1="87.028" y1="115.041" x2="78.74" y2="127.612" gradientUnits="userSpaceOnUse"><stop stop-color="#D8DADB"/><stop offset="1" stop-color="#AFB4B5"/></linearGradient><linearGradient id="A" x1="111.739" y1="99.975" x2="127.704" y2="78.656" gradientUnits="userSpaceOnUse"><stop stop-opacity="0"/><stop offset="1" stop-color="#6E6E6E"/></linearGradient><linearGradient id="B" x1="132.14" y1="64.798" x2="112.396" y2="94.685" gradientUnits="userSpaceOnUse"><stop stop-color="#fff"/><stop offset="1" stop-color="#9A9EA1"/></linearGradient><radialGradient id="r" cx="0" cy="0" r="1" gradientUnits="userSpaceOnUse" gradientTransform="matrix(-153.09523 58.91496 -75.0785 -195.0975 218.337 78.97)"><stop offset=".12" stop-color="#FAFAFA"/><stop offset=".486" stop-color="#B0B0B0"/><stop offset=".618" stop-color="#8A8A8A"/><stop offset="1" stop-color="#171A1E"/></radialGradient><radialGradient id="s" cx="0" cy="0" r="1" gradientUnits="userSpaceOnUse" gradientTransform="matrix(-153.09523 58.91496 -75.0785 -195.0975 218.337 78.97)"><stop offset=".12" stop-color="#FAFAFA"/><stop offset=".486" stop-color="#B0B0B0"/><stop offset=".618" stop-color="#8A8A8A"/><stop offset="1" stop-color="#171A1E"/></radialGradient><radialGradient id="t" cx="0" cy="0" r="1" gradientUnits="userSpaceOnUse" gradientTransform="matrix(-153.09523 58.91496 -75.0785 -195.0975 218.337 78.97)"><stop offset=".12" stop-color="#FAFAFA"/><stop offset=".486" stop-color="#B0B0B0"/><stop offset=".618" stop-color="#8A8A8A"/><stop offset="1" stop-color="#171A1E"/></radialGradient><radialGradient id="u" cx="0" cy="0" r="1" gradientUnits="userSpaceOnUse" gradientTransform="matrix(-153.09523 58.91496 -75.0785 -195.0975 218.337 78.97)"><stop offset=".12" stop-color="#FAFAFA"/><stop offset=".486" stop-color="#B0B0B0"/><stop offset=".618" stop-color="#8A8A8A"/><stop offset="1" stop-color="#171A1E"/></radialGradient><radialGradient id="v" cx="0" cy="0" r="1" gradientUnits="userSpaceOnUse" gradientTransform="matrix(-153.09523 58.91496 -75.0785 -195.0975 218.337 78.97)"><stop offset=".12" stop-color="#FAFAFA"/><stop offset=".486" stop-color="#B0B0B0"/><stop offset=".618" stop-color="#8A8A8A"/><stop offset="1" stop-color="#171A1E"/></radialGradient><radialGradient id="w" cx="0" cy="0" r="1" gradientUnits="userSpaceOnUse" gradientTransform="matrix(-153.09523 58.91496 -75.0785 -195.0975 218.337 78.97)"><stop offset=".12" stop-color="#FAFAFA"/><stop offset=".486" stop-color="#B0B0B0"/><stop offset=".618" stop-color="#8A8A8A"/><stop offset="1" stop-color="#171A1E"/></radialGradient><radialGradient id="x" cx="0" cy="0" r="1" gradientUnits="userSpaceOnUse" gradientTransform="matrix(-153.09523 58.91496 -75.0785 -195.0975 218.337 78.97)"><stop offset=".12" stop-color="#FAFAFA"/><stop offset=".486" stop-color="#B0B0B0"/><stop offset=".618" stop-color="#8A8A8A"/><stop offset="1" stop-color="#171A1E"/></radialGradient><radialGradient id="y" cx="0" cy="0" r="1" gradientUnits="userSpaceOnUse" gradientTransform="matrix(-153.09523 58.91496 -75.0785 -195.0975 218.337 78.97)"><stop offset=".12" stop-color="#FAFAFA"/><stop offset=".486" stop-color="#B0B0B0"/><stop offset=".618" stop-color="#8A8A8A"/><stop offset="1" stop-color="#171A1E"/></radialGradient></defs></svg>