<svg width="24" height="24" viewBox="0 0 24 24" fill="none" xmlns="http://www.w3.org/2000/svg">
<path d="M19 3L22 8L12 21L2 8L5 3H19Z" fill="#FD88C7"/>
<path d="M12 21L8 8H2L12 21Z" fill="#6F41D6"/>
<path opacity="0.6" d="M8 8L5 3L2 8H8Z" fill="#6F41D6"/>
<path opacity="0.67" d="M21.9999 8L19 3L16 8H21.9999Z" fill="#FF5CF2"/>
<path opacity="0.8" d="M8 8L12.0001 21L16.0001 8H8Z" fill="#DA2EE3"/>
<path opacity="0.6" d="M7.99993 8L4.99976 3H11.9997L7.99993 8Z" fill="#A85DD0"/>
<path opacity="0.69" d="M12 3L16 8L19 3H12Z" fill="#E140DD"/>
<g filter="url(#filter0_d_2192_35331)">
<path fill-rule="evenodd" clip-rule="evenodd" d="M17 10C17.5523 10 18 10.4477 18 11V13H20C20.5523 13 21 13.4477 21 14C21 14.5523 20.5523 15 20 15H18V17C18 17.5523 17.5523 18 17 18C16.4477 18 16 17.5523 16 17V15H14C13.4477 15 13 14.5523 13 14C13 13.4477 13.4477 13 14 13H16V11C16 10.4477 16.4477 10 17 10Z" fill="white"/>
</g>
<defs>
<filter id="filter0_d_2192_35331" x="12.5" y="9.5" width="10" height="10" filterUnits="userSpaceOnUse" color-interpolation-filters="sRGB">
<feFlood flood-opacity="0" result="BackgroundImageFix"/>
<feColorMatrix in="SourceAlpha" type="matrix" values="0 0 0 0 0 0 0 0 0 0 0 0 0 0 0 0 0 0 127 0" result="hardAlpha"/>
<feOffset dx="0.5" dy="0.5"/>
<feGaussianBlur stdDeviation="0.5"/>
<feComposite in2="hardAlpha" operator="out"/>
<feColorMatrix type="matrix" values="0 0 0 0 0 0 0 0 0 0 0 0 0 0 0 0 0 0 0.45 0"/>
<feBlend mode="normal" in2="BackgroundImageFix" result="effect1_dropShadow_2192_35331"/>
<feBlend mode="normal" in="SourceGraphic" in2="effect1_dropShadow_2192_35331" result="shape"/>
</filter>
</defs>
</svg>
